<svg version="1" xmlns="http://www.w3.org/2000/svg" width="400" height="400" viewBox="0 0 300.000000 300.000000"><path d="M135 2.5c-.8.2-4.9.9-9 1.5-4.1.7-10.7 2-14.5 3-12 3.2-31.9 11.5-31.7 13.3 0 .5 15.1 14 33.4 30 80 70.1 82.3 72 82.7 70.1 15.6-79 19.9-102.9 18.8-103.6-.6-.4-5.7-2.5-11.2-4.7-18.3-7.1-35-10.2-54.8-10-6.7.1-12.9.3-13.7.4zM226 26.1c0 1.2-1.6 9.9-3.5 19.3-11.2 55.4-25.5 129-25.1 129.3.2.3 13.2-3.9 28.8-9.2 15.5-5.3 37.9-12.9 49.5-16.9 11.7-4 21.6-7.5 21.9-7.9.4-.4-.1-5.6-1-11.8-5-32.2-19.3-60.7-41.6-82.9-9.9-9.8-25.3-22-27.9-22-.6 0-1.1 1-1.1 2.1zM60.4 32.2C50.6 39.5 36.6 54 28.8 65 13.7 86.3 4.3 112.2 2.4 137.8l-.7 9.2 29.4-10.1c16.2-5.5 48.5-16.6 71.9-24.6 23.4-8 43.1-14.8 43.8-15.2 1.3-.8-2.7-4.4-65.2-58.9C74.6 32.1 68.4 27 68 27c-.4 0-3.8 2.3-7.6 5.2zM95.5 127c-2.7 1.1-22.3 7.8-43.5 15s-41.1 14.1-44.3 15.2l-5.9 2.1.7 6.1C5.9 196.7 20 227.9 41 250.3c12.3 13.1 31.5 28.3 32.5 25.5.2-.7 5.2-26.1 11-56.3 5.8-30.3 12.4-63.7 14.6-74.4 2.1-10.6 3.9-19.5 3.9-19.7 0-.8-2.7-.2-7.5 1.6zM261.5 165.6c-59 20.4-79.7 27.5-94.9 32.7l-14.9 5 3.9 3.6c3.9 3.6 37 32.6 62.2 54.5 7.3 6.4 13.7 11.6 14.2 11.6.4 0 3.5-2 6.8-4.5 18.1-13.6 33.1-31.7 43.6-52.6 8.8-17.6 13.8-35.2 15.2-53.3.7-8 .6-8.6-1.2-8.5-1 0-16.7 5.2-34.9 11.5zM94.2 230.2C88.6 258.4 84 281.9 84 282.3c0 1.9 22.1 9.8 36 12.9 6.6 1.4 14.5 2.2 26 2.5 19.3.6 32.9-1.4 50.8-7.2 9.9-3.3 23.2-9.3 23.6-10.6.1-.5-33.8-30.4-98.4-86.7-9-7.8-16.6-14.2-17-14.2-.4 0-5.3 23.1-10.8 51.2z"/></svg>